  0
SECTION
  2
HEADER
  9
$ACADVER
  1
AC1009
  9
$INSBASE
 10
0.0
 20
0.0
 30
0.0
  9
$EXTMIN
 10
0.0
 20
0.0
 30
0.0
  9
$EXTMAX
 10
0.0
 20
0.0
 30
0.0
  0
ENDSEC
  0
SECTION
  2
TABLES
  0
TABLE
  2
VPORT
 70
0
  0
ENDTAB
  0
TABLE
  2
LTYPE
 70
1
  0
LTYPE
  2
CONTINUOUS
 70
0
  3
Solid line
 72
65
 73
0
 40
0.0
  0
ENDTAB
  0
TABLE
  2
LAYER
 70
1
  0
LAYER
  2
0
 70
64
 62
7
  6
continuous
  0
ENDTAB
  0
TABLE
  2
STYLE
 70
1
  0
STYLE
  2
STANDARD
 70
0
 40
0
 41
1.0
 50
0.0
 71
0
 42
1
 3
ARIAL.TTF
 4

  0
ENDTAB
  0
TABLE
  2
VIEW
 70
0
  0
ENDTAB
  0
ENDSEC
  0
SECTION
  2
BLOCKS
  0
BLOCK
  8
0
  2
FACEBINDER
 70
0
 10
0.0
 20
0.0
 30
0.0
  3
FACEBINDER
  0
LINE
  8
0
 62
0
 10
627.425664825
 20
6204.6809918
 30
0.0
 11
267.30281682
 21
6742.12660758
 31
0.0
  0
LINE
  8
0
 62
0
 10
1167.42565882
 20
6077.61215612
 30
0.0
 11
627.425664825
 21
6204.6809918
 31
0.0
  0
LINE
  8
0
 62
0
 10
1167.4256404
 20
5687.61215612
 30
0.0
 11
1167.42565882
 21
6077.61215612
 31
0.0
  0
LINE
  8
0
 62
0
 10
1167.4256404
 20
5687.61215612
 30
0.0
 11
-732.029826092
 21
5642.12665479
 31
0.0
  0
LINE
  8
0
 62
0
 10
-432.69718318
 20
6742.12664065
 30
0.0
 11
-732.029826092
 21
5642.12665479
 31
0.0
  0
LINE
  8
0
 62
0
 10
267.30281682
 20
6742.12660758
 30
0.0
 11
-432.69718318
 21
6742.12664065
 31
0.0
  0
LINE
  8
0
 62
0
 10
208.59864022
 20
6682.12661035
 30
0.0
 11
-224.266808745
 21
6682.1266308
 31
0.0
  0
ARC
  8
0
 62
0
 10
-224.266811107
 20
6632.1266308
 30
0.0
 40
50.0
 50
89.999997293
 51
164.777240259
  0
LINE
  8
0
 62
0
 10
-272.512424522
 20
6645.25525549
 30
0.0
 11
-304.850064419
 21
6526.41955791
 31
0.0
  0
ARC
  8
0
 62
0
 10
-256.604451005
 20
6513.29093322
 30
0.0
 40
50.0
 50
164.777240259
 51
-135.000002707
  0
LINE
  8
0
 62
0
 10
-291.959791734
 20
6477.93559583
 30
0.0
 11
-150.538442179
 21
6336.51423291
 31
0.0
  0
ARC
  8
0
 62
0
 10
-115.183101449
 20
6371.8695703
 30
0.0
 40
50.0
 50
-135.000002707
 51
-90.000002707
  0
LINE
  8
0
 62
0
 10
-115.183103811
 20
6321.8695703
 30
0.0
 11
382.987470759
 21
6321.86954677
 31
0.0
  0
ARC
  8
0
 62
0
 10
382.987473121
 20
6371.86954677
 30
0.0
 40
50.0
 50
-90.000002707
 51
33.8246078068
  0
LINE
  8
0
 62
0
 10
424.524746659
 20
6399.70216984
 30
0.0
 11
250.135911396
 21
6659.95923342
 31
0.0
  0
ARC
  8
0
 62
0
 10
208.598637858
 20
6632.12661035
 30
0.0
 40
50.0
 50
33.8246078068
 51
89.999997293
  0
LINE
  8
0
 62
0
 10
477.4256601
 20
6104.68099889
 30
0.0
 11
242.4256601
 21
6104.68100999
 31
0.0
  0
ARC
  8
0
 62
0
 10
242.425657738
 20
6054.68100999
 30
0.0
 40
50.0
 50
89.999997293
 51
179.9999973
  0
LINE
  8
0
 62
0
 10
192.425657738
 20
6054.68101236
 30
0.0
 11
192.425647482
 21
5837.61220218
 31
0.0
  0
ARC
  8
0
 62
0
 10
242.425647482
 20
5837.61219982
 30
0.0
 40
50.0
 50
179.9999973
 51
-90.000002707
  0
LINE
  8
0
 62
0
 10
242.42564512
 20
5787.61219982
 30
0.0
 11
477.42564512
 21
5787.61218872
 31
0.0
  0
ARC
  8
0
 62
0
 10
477.425647482
 20
5837.61218872
 30
0.0
 40
50.0
 50
-90.000002707
 51
-2.69986932838e-06
  0
LINE
  8
0
 62
0
 10
527.425647482
 20
5837.61218635
 30
0.0
 11
527.425657738
 21
6054.68099653
 31
0.0
  0
ARC
  8
0
 62
0
 10
477.425657738
 20
6054.68099889
 30
0.0
 40
50.0
 50
-2.69986932838e-06
 51
89.999997293
  0
LINE
  8
0
 62
0
 10
1028.87847508
 20
6007.48276027
 30
0.0
 11
788.878477747
 21
6063.95779836
 31
0.0
  0
ARC
  8
0
 62
0
 10
777.425655877
 20
6015.28714117
 30
0.0
 40
50.0
 50
76.7584733524
 51
179.9999973
  0
LINE
  8
0
 62
0
 10
727.425655877
 20
6015.28714353
 30
0.0
 11
727.425647482
 21
5837.6121769
 31
0.0
  0
ARC
  8
0
 62
0
 10
777.425647482
 20
5837.61217454
 30
0.0
 40
50.0
 50
179.9999973
 51
-90.000002707
  0
LINE
  8
0
 62
0
 10
777.42564512
 20
5787.61217454
 30
0.0
 11
1017.42564512
 21
5787.6121632
 31
0.0
  0
ARC
  8
0
 62
0
 10
1017.42564748
 20
5837.6121632
 30
0.0
 40
50.0
 50
-90.000002707
 51
-2.69986932838e-06
  0
LINE
  8
0
 62
0
 10
1067.42564748
 20
5837.61216084
 30
0.0
 11
1067.42565321
 21
5958.81210072
 31
0.0
  0
ARC
  8
0
 62
0
 10
1017.42565321
 20
5958.81210308
 30
0.0
 40
50.0
 50
-2.69986932838e-06
 51
76.7584733524
  0
LINE
  8
0
 62
0
 10
-57.5743398996
 20
6104.68102417
 30
0.0
 11
-128.262535075
 21
6104.68102751
 31
0.0
  0
ARC
  8
0
 62
0
 10
-128.262537438
 20
6054.68102751
 30
0.0
 40
50.0
 50
89.999997293
 51
167.999997293
  0
LINE
  8
0
 62
0
 10
-177.169916983
 20
6065.07661436
 30
0.0
 11
-223.309327175
 21
5848.00780636
 31
0.0
  0
ARC
  8
0
 62
0
 10
-174.40194763
 20
5837.61221951
 30
0.0
 40
50.0
 50
167.999997293
 51
-90.000002707
  0
LINE
  8
0
 62
0
 10
-174.401949992
 20
5787.61221951
 30
0.0
 11
-57.5743548798
 21
5787.61221399
 31
0.0
  0
ARC
  8
0
 62
0
 10
-57.5743525175
 20
5837.61221399
 30
0.0
 40
50.0
 50
-90.000002707
 51
-2.69986932838e-06
  0
LINE
  8
0
 62
0
 10
-7.57435251751
 20
5837.61221163
 30
0.0
 11
-7.57434226191
 21
6054.6810218
 31
0.0
  0
ARC
  8
0
 62
0
 10
-57.5743422619
 20
6054.68102417
 30
0.0
 40
50.0
 50
-2.69986932838e-06
 51
89.999997293
  0
ENDBLK
  0
ENDSEC
  0
SECTION
  2
ENTITIES
  0
DIMENSION
  8
Construction
 62
0
 3
Standard
 70
1
 10
267.302819748
 20
6804.09472636
 30
2.5
 13
-432.69718318
 23
6742.12664065
 33
2.50000000001
 14
267.30281682
 24
6742.12660758
 34
2.5
  0
DIMENSION
  8
Construction
 62
0
 3
Standard
 70
1
 10
1167.4256404
 20
5521.46582031
 30
2.49999999997
 13
-732.029826092
 23
5642.12665479
 33
2.50000000001
 14
1167.4256404
 24
5642.12665479
 34
2.49999999997
  0
DIMENSION
  8
Construction
 62
0
 3
Standard
 70
1
 10
-479.599503045
 20
6754.88972751
 30
2.50000000001
 13
-732.029826092
 23
5642.12665479
 33
2.50000000001
 14
-432.69718318
 24
6742.12664065
 34
2.50000000001
  0
POLYLINE
  8
Construction
 62
150
 70
0
 66
1
 10
0.0
 20
0.0
 30
0.0
  0
VERTEX
  8
Construction
 10
1167.4256404
 20
5687.61215612
 30
2.49999999997
  0
VERTEX
  8
Construction
 10
-719.291748047
 20
5687.61215612
 30
2.50000000001
  0
SEQEND
  8
Construction
  0
DIMENSION
  8
Construction
 62
0
 3
Standard
 70
1
 10
666.736022949
 20
5674.42822266
 30
2.49999999998
 13
627.425664825
 23
6204.6809918
 33
2.49999999998
 14
627.425664825
 24
5674.42822266
 34
2.49999999998
  0
POLYLINE
  8
Construction
 62
150
 70
0
 66
1
 10
0.0
 20
0.0
 30
0.0
  0
VERTEX
  8
Construction
 10
627.425664825
 20
6204.6809918
 30
2.49999999998
  0
VERTEX
  8
Construction
 10
627.425664825
 20
5674.98474125
 30
2.49999999998
  0
SEQEND
  8
Construction
  0
DIMENSION
  8
Construction
 62
0
 3
Standard
 70
1
 10
627.425664825
 20
5625.22363281
 30
2.49999999998
 13
1167.4256404
 23
5687.61215612
 33
2.49999999997
 14
627.425664825
 24
5687.61215612
 34
2.49999999998
  0
DIMENSION
  8
Construction
 62
0
 3
Standard
 70
1
 10
1246.50829961
 20
5687.61215238
 30
2.49999999997
 13
1167.42565882
 23
6077.61215612
 33
2.49999999998
 14
1167.4256404
 24
5687.61215612
 34
2.49999999997
  0
DIMENSION
  8
Construction
 62
0
 3
Standard
 70
1
 10
-904.161010742
 20
5642.12665479
 30
2.50000000001
 13
-432.69718318
 23
6742.12664065
 33
2.50000000001
 14
-432.69718318
 24
5642.12665479
 34
2.5
  0
DIMENSION
  8
Construction
 62
0
 3
Standard
 70
1
 10
1002.46044922
 20
5687.61215612
 30
2.49999999998
 13
1017.42564512
 23
5787.6121632
 33
2.49999999998
 14
1017.42564512
 24
5687.61215612
 34
2.49999999998
  0
DIMENSION
  8
Construction
 62
0
 3
Standard
 70
1
 10
-79.4430999756
 20
5687.61215612
 30
2.5
 13
-57.5743548798
 23
5787.61221399
 33
2.49999999999
 14
-57.5743548798
 24
5687.61215612
 34
2.49999999999
  0
DIMENSION
  8
Construction
 62
0
 3
Standard
 70
1
 10
192.425647492
 20
5837.61220218
 30
2.49999999999
 13
-7.57434226191
 23
6054.6810218
 33
2.5
 14
192.425657738
 24
6054.68101236
 34
2.5
  0
DIMENSION
  8
Construction
 62
0
 3
Standard
 70
1
 10
454.602905273
 20
5687.61215612
 30
2.49999999999
 13
477.42564512
 23
5787.61218872
 33
2.49999999998
 14
477.42564512
 24
5687.61215612
 34
2.49999999998
  0
DIMENSION
  8
Construction
 62
0
 3
Standard
 70
1
 10
1004.74463317
 20
6115.8930612
 30
2.49999999998
 13
1028.87847508
 23
6007.48276027
 33
2.49999999998
 14
1051.78411882
 24
6104.82407465
 34
2.49999999998
  0
DIMENSION
  8
Construction
 62
0
 3
Standard
 70
1
 10
1167.42565127
 20
5917.65234256
 30
2.49999999997
 13
1067.42565321
 23
5958.81210072
 33
2.49999999997
 14
1167.42565321
 24
5958.812096
 34
2.49999999997
  0
DIMENSION
  8
Construction
 62
0
 3
Standard
 70
1
 10
627.425664825
 20
5833.08007812
 30
2.49999999998
 13
527.425647483
 23
5837.61218635
 33
2.49999999999
 14
627.425664825
 24
5837.61218635
 34
2.49999999999
  0
DIMENSION
  8
Construction
 62
0
 3
Standard
 70
1
 10
627.425664825
 20
5852.46435547
 30
2.49999999998
 13
727.425655877
 23
6015.28714353
 33
2.49999999998
 14
627.425664825
 24
6015.28714353
 34
2.49999999998
  0
POLYLINE
  8
Construction
 62
150
 70
0
 66
1
 10
0.0
 20
0.0
 30
0.0
  0
VERTEX
  8
Construction
 10
627.425664825
 20
6204.6809918
 30
2.49999999998
  0
VERTEX
  8
Construction
 10
-417.31854248
 20
6204.6809918
 30
2.50000000001
  0
SEQEND
  8
Construction
  0
DIMENSION
  8
Construction
 62
0
 3
Standard
 70
1
 10
436.164733887
 20
6104.68099889
 30
2.49999999999
 13
627.425664825
 23
6204.6809918
 33
2.49999999998
 14
627.425664825
 24
6104.68099889
 34
2.49999999998
  0
DIMENSION
  8
Construction
 62
0
 3
Standard
 70
1
 10
-80.7484893799
 20
6104.68102417
 30
2.5
 13
627.425664825
 23
6204.6809918
 33
2.49999999998
 14
627.425664825
 24
6104.68102417
 34
2.49999999998
  0
POLYLINE
  8
Construction
 62
150
 70
0
 66
1
 10
0.0
 20
0.0
 30
0.0
  0
VERTEX
  8
Construction
 10
627.425664825
 20
6204.6809918
 30
2.49999999998
  0
VERTEX
  8
Construction
 10
627.425664825
 20
6104.68102417
 30
2.49999999998
  0
SEQEND
  8
Construction
  0
DIMENSION
  8
Construction
 62
0
 3
Standard
 70
1
 10
173.328460693
 20
6204.6809918
 30
2.5
 13
382.987470759
 23
6321.86954677
 33
2.49999999999
 14
382.987470759
 24
6204.6809918
 34
2.49999999999
  0
DIMENSION
  8
Construction
 62
0
 3
Standard
 70
1
 10
-456.046249336
 20
6656.32252589
 30
2.50000000001
 13
-272.512424522
 23
6645.25525549
 33
2.50000000001
 14
-446.196632815
 24
6692.51830437
 34
2.50000000001
  0
DIMENSION
  8
Construction
 62
0
 3
Standard
 70
1
 10
444.817604632
 20
6477.20438737
 30
2.49999999999
 13
424.524746659
 23
6399.70216984
 33
2.49999999999
 14
474.369474905
 24
6433.10131752
 34
2.49999999999
  0
DIMENSION
  8
Construction
 62
0
 3
Standard
 70
1
 10
148.031540376
 20
6742.12661321
 30
2.5
 13
208.59864022
 23
6682.12661035
 33
2.5
 14
208.598643055
 24
6742.12661035
 34
2.5
  0
DIMENSION
  8
Construction
 62
0
 3
Standard
 70
1
 10
-114.417296103
 20
6372.63537557
 30
2.5
 13
-291.959791734
 23
6477.93559583
 33
2.50000000001
 14
-150.538442179
 24
6336.51423291
 34
2.5
  0
INSERT
  2
FACEBINDER
  8
0
 62
0
 10
0.0
 20
0.0
 30
0.0
  0
ENDSEC
  0
EOF
