<?xml version="1.0"?>
<!DOCTYPE svg PUBLIC "-//W3C//DTD SVG 1.1//EN" "http://www.w3.org/Graphics/SVG/1.1/DTD/svg11.dtd">
<svg width="1937.44459461mm" height="1137.98909556mm" viewBox="0 0 1937.44459461 1137.98909556" xmlns="http://www.w3.org/2000/svg" version="1.1">
<g id="Facebinder" transform="translate(751.024381,6761.121196) scale(1,-1)">
<path id="Facebinder_f0000"  d="M 267.30281682 6742.12660758 L -432.69718318 6742.12664065 L -732.029826092 5642.12665479 L 1167.4256404 5687.61215612 L 1167.42565882 6077.61215612 L 627.425664825 6204.6809918 L 267.30281682 6742.12660758 Z M 208.59864022 6682.12661035 A 50.0 50.0 0 0 0 250.135911396 6659.95923342 L 424.524746659 6399.70216984 A 50.0 50.0 0 0 0 382.987470759 6321.86954677 L -115.183103811 6321.8695703 A 50.0 50.0 0 0 0 -150.538442179 6336.51423291 L -291.959791734 6477.93559583 A 50.0 50.0 0 0 0 -304.850064419 6526.41955791 L -272.512424522 6645.25525549 A 50.0 50.0 0 0 0 -224.266808745 6682.1266308 L 208.59864022 6682.12661035 Z M 477.4256601 6104.68099889 A 50.0 50.0 0 0 0 527.425657738 6054.68099653 L 527.425647482 5837.61218635 A 50.0 50.0 0 0 0 477.42564512 5787.61218872 L 242.42564512 5787.61219982 A 50.0 50.0 0 0 0 192.425647482 5837.61220218 L 192.425657738 6054.68101236 A 50.0 50.0 0 0 0 242.4256601 6104.68100999 L 477.4256601 6104.68099889 Z M 1028.87847508 6007.48276027 A 50.0 50.0 0 0 0 1067.42565321 5958.81210072 L 1067.42564748 5837.61216084 A 50.0 50.0 0 0 0 1017.42564512 5787.6121632 L 777.42564512 5787.61217454 A 50.0 50.0 0 0 0 727.425647482 5837.6121769 L 727.425655877 6015.28714353 A 50.0 50.0 0 0 0 788.878477747 6063.95779836 L 1028.87847508 6007.48276027 Z M -57.5743398996 6104.68102417 A 50.0 50.0 0 0 0 -7.57434226191 6054.6810218 L -7.57435251751 5837.61221163 A 50.0 50.0 0 0 0 -57.5743548798 5787.61221399 L -174.401949992 5787.61221951 A 50.0 50.0 0 0 0 -223.309327175 5848.00780636 L -177.169916983 6065.07661436 A 50.0 50.0 0 0 0 -128.262535075 6104.68102751 L -57.5743398996 6104.68102417 Z " stroke="#191919" stroke-width="0.35 px" style="stroke-width:0.35;stroke-miterlimit:4;stroke-dasharray:none;fill:#cccccc;fill-rule: evenodd "/>
<title>Facebinder</title>
</g>
</svg>