<?xml version="1.0"?>
<!DOCTYPE svg PUBLIC "-//W3C//DTD SVG 1.1//EN" "http://www.w3.org/Graphics/SVG/1.1/DTD/svg11.dtd">
<svg width="746.217903119mm" height="857.87398168mm" viewBox="0 0 746.217903119 857.87398168" xmlns="http://www.w3.org/2000/svg" version="1.1">
<g id="Pad001" transform="translate(738.902041,69.285203) scale(1,-1)">
<path id="Pad001_f0000"  d="M -576.679981177 61.9693416962 L -576.679981177 61.9693416962 L 0.0 0.0 L 0.0 0.0 L -576.679981177 61.9693416962 Z " stroke="#191919" stroke-width="0.35 px" style="stroke-width:0.35;stroke-miterlimit:4;stroke-dasharray:none;fill:#cccccc;fill-rule: evenodd "/>
<path id="Pad001_f0001"  d="M 0.0 0.0 L 0.0 0.0 L 0.0 -670.0 L 0.0 -670.0 L 0.0 0.0 Z " stroke="#191919" stroke-width="0.35 px" style="stroke-width:0.35;stroke-miterlimit:4;stroke-dasharray:none;fill:#cccccc;fill-rule: evenodd "/>
<path id="Pad001_f0002"  d="M 0.0 -670.0 L 0.0 -670.0 L -731.586179529 -781.272916394 L -731.586179529 -781.272916394 L 0.0 -670.0 Z " stroke="#191919" stroke-width="0.35 px" style="stroke-width:0.35;stroke-miterlimit:4;stroke-dasharray:none;fill:#cccccc;fill-rule: evenodd "/>
<path id="Pad001_f0003"  d="M -731.586179529 -781.272916394 L -731.586179529 -781.272916394 L -576.679981177 61.9693416962 L -576.679981177 61.9693416962 L -731.586179529 -781.272916394 Z " stroke="#191919" stroke-width="0.35 px" style="stroke-width:0.35;stroke-miterlimit:4;stroke-dasharray:none;fill:#cccccc;fill-rule: evenodd "/>
<path id="Pad001_f0004"  d="M -526.141189551 -50.3453080255 L -622.620077894 -575.534593732 L -622.620077894 -575.534593732 L -526.141189551 -50.3453080255 L -526.141189551 -50.3453080255 Z " stroke="#191919" stroke-width="0.35 px" style="stroke-width:0.35;stroke-miterlimit:4;stroke-dasharray:none;fill:#cccccc;fill-rule: evenodd "/>
<path id="Pad001_f0005"  d="M -471.621905344 -9.66550110681 L -471.621905344 -9.66550110681 A 50.0 50.0 0 0 1 -526.141189551 -50.3453080255 L -526.141189551 -50.3453080255 A 50.0 50.0 0 0 0 -471.621905344 -9.66550110681 Z " stroke="#191919" stroke-width="0.35 px" style="stroke-width:0.35;stroke-miterlimit:4;stroke-dasharray:none;fill:#cccccc;fill-rule: evenodd "/>
<path id="Pad001_f0006"  d="M -104.657815371 -49.099023726 L -471.621905344 -9.66550110681 L -471.621905344 -9.66550110681 L -104.657815371 -49.099023726 L -104.657815371 -49.099023726 Z " stroke="#191919" stroke-width="0.35 px" style="stroke-width:0.35;stroke-miterlimit:4;stroke-dasharray:none;fill:#cccccc;fill-rule: evenodd "/>
<path id="Pad001_f0007"  d="M -60.0 -98.8128152067 L -60.0 -98.8128152067 A 50.0 50.0 0 0 1 -104.657815371 -49.099023726 L -104.657815371 -49.099023726 A 50.0 50.0 0 0 0 -60.0 -98.8128152067 Z " stroke="#191919" stroke-width="0.35 px" style="stroke-width:0.35;stroke-miterlimit:4;stroke-dasharray:none;fill:#cccccc;fill-rule: evenodd "/>
<path id="Pad001_f0008"  d="M -60.0 -514.07975111 L -60.0 -98.8128152067 L -60.0 -98.8128152067 L -60.0 -514.07975111 L -60.0 -514.07975111 Z " stroke="#191919" stroke-width="0.35 px" style="stroke-width:0.35;stroke-miterlimit:4;stroke-dasharray:none;fill:#cccccc;fill-rule: evenodd "/>
<path id="Pad001_f0009"  d="M -102.481559703 -563.511249727 L -102.481559703 -563.511249727 A 50.0 50.0 0 0 1 -60.0 -514.07975111 L -60.0 -514.07975111 A 50.0 50.0 0 0 0 -102.481559703 -563.511249727 Z " stroke="#191919" stroke-width="0.35 px" style="stroke-width:0.35;stroke-miterlimit:4;stroke-dasharray:none;fill:#cccccc;fill-rule: evenodd "/>
<path id="Pad001_f0010"  d="M -565.924538019 -634.000076911 L -102.481559703 -563.511249727 L -102.481559703 -563.511249727 L -565.924538019 -634.000076911 L -565.924538019 -634.000076911 Z " stroke="#191919" stroke-width="0.35 px" style="stroke-width:0.35;stroke-miterlimit:4;stroke-dasharray:none;fill:#cccccc;fill-rule: evenodd "/>
<path id="Pad001_f0011"  d="M -622.620077894 -575.534593732 L -622.620077894 -575.534593732 A 50.0 50.0 0 0 1 -565.924538019 -634.000076911 L -565.924538019 -634.000076911 A 50.0 50.0 0 0 0 -622.620077894 -575.534593732 Z " stroke="#191919" stroke-width="0.35 px" style="stroke-width:0.35;stroke-miterlimit:4;stroke-dasharray:none;fill:#cccccc;fill-rule: evenodd "/>
<path id="Pad001_f0012"  d="M -576.679981177 61.9693416962 L 0.0 0.0 L 0.0 -670.0 L -731.586179529 -781.272916394 L -576.679981177 61.9693416962 Z M -622.620077894 -575.534593732 A 50.0 50.0 0 0 1 -565.924538019 -634.000076911 L -102.481559703 -563.511249727 A 50.0 50.0 0 0 1 -60.0 -514.07975111 L -60.0 -98.8128152067 A 50.0 50.0 0 0 1 -104.657815371 -49.099023726 L -471.621905344 -9.66550110681 A 50.0 50.0 0 0 1 -526.141189551 -50.3453080255 L -622.620077894 -575.534593732 Z " stroke="#191919" stroke-width="0.35 px" style="stroke-width:0.35;stroke-miterlimit:4;stroke-dasharray:none;fill:#cccccc;fill-rule: evenodd "/>
<path id="Pad001_f0013"  d="M 0.0 0.0 L 0.0 -670.0 L -731.586179529 -781.272916394 L -576.679981177 61.9693416962 L 0.0 0.0 Z M -622.620077894 -575.534593732 L -526.141189551 -50.3453080255 A 50.0 50.0 0 0 0 -471.621905344 -9.66550110681 L -104.657815371 -49.099023726 A 50.0 50.0 0 0 0 -60.0 -98.8128152067 L -60.0 -514.07975111 A 50.0 50.0 0 0 0 -102.481559703 -563.511249727 L -565.924538019 -634.000076911 A 50.0 50.0 0 0 0 -622.620077894 -575.534593732 Z " stroke="#191919" stroke-width="0.35 px" style="stroke-width:0.35;stroke-miterlimit:4;stroke-dasharray:none;fill:#cccccc;fill-rule: evenodd "/>
<title>Pad001</title>
</g>
</svg>