<?xml version="1.0"?>
<!DOCTYPE svg PUBLIC "-//W3C//DTD SVG 1.1//EN" "http://www.w3.org/Graphics/SVG/1.1/DTD/svg11.dtd">
<svg width="408.0mm" height="345.975930262mm" viewBox="0 0 408.0 345.975930262" xmlns="http://www.w3.org/2000/svg" version="1.1">
<g id="Solid002" transform="translate(-5969.299248,2553.975930) scale(1,-1)">
<path id="Solid002_f0000"  d="M 5973.29924817 2292.0 L 5973.29924817 2413.0 L 5973.29924817 2413.0 L 5973.29924817 2292.0 L 5973.29924817 2292.0 Z " stroke="#191919" stroke-width="0.35 px" style="stroke-width:0.35;stroke-miterlimit:4;stroke-dasharray:none;fill:#cccccc;fill-rule: evenodd "/>
<path id="Solid002_f0001"  d="M 6053.29924817 2212.0 A 80.0 80.0 0 0 0 5973.29924817 2292.0 L 5973.29924817 2292.0 A 80.0 80.0 0 0 1 6053.29924817 2212.0 L 6053.29924817 2212.0 Z " stroke="#191919" stroke-width="0.35 px" style="stroke-width:0.35;stroke-miterlimit:4;stroke-dasharray:none;fill:#cccccc;fill-rule: evenodd "/>
<path id="Solid002_f0002"  d="M 6293.29924817 2212.0 L 6053.29924817 2212.0 L 6053.29924817 2212.0 L 6293.29924817 2212.0 L 6293.29924817 2212.0 Z " stroke="#191919" stroke-width="0.35 px" style="stroke-width:0.35;stroke-miterlimit:4;stroke-dasharray:none;fill:#cccccc;fill-rule: evenodd "/>
<path id="Solid002_f0003"  d="M 6373.29924817 2292.0 A 80.0 80.0 0 0 0 6293.29924817 2212.0 L 6293.29924817 2212.0 A 80.0 80.0 0 0 1 6373.29924817 2292.0 L 6373.29924817 2292.0 Z " stroke="#191919" stroke-width="0.35 px" style="stroke-width:0.35;stroke-miterlimit:4;stroke-dasharray:none;fill:#cccccc;fill-rule: evenodd "/>
<path id="Solid002_f0004"  d="M 6373.29924817 2470.0 L 6373.29924817 2292.0 L 6373.29924817 2292.0 L 6373.29924817 2470.0 L 6373.29924817 2470.0 Z " stroke="#191919" stroke-width="0.35 px" style="stroke-width:0.35;stroke-miterlimit:4;stroke-dasharray:none;fill:#cccccc;fill-rule: evenodd "/>
<path id="Solid002_f0005"  d="M 6274.81345371 2547.83492406 A 80.0 80.0 0 0 0 6373.29924817 2470.0 L 6373.29924817 2470.0 A 80.0 80.0 0 0 1 6274.81345371 2547.83492406 L 6274.81345371 2547.83492406 Z " stroke="#191919" stroke-width="0.35 px" style="stroke-width:0.35;stroke-miterlimit:4;stroke-dasharray:none;fill:#cccccc;fill-rule: evenodd "/>
<path id="Solid002_f0006"  d="M 6034.81345371 2490.83492406 L 6274.81345371 2547.83492406 L 6274.81345371 2547.83492406 L 6034.81345371 2490.83492406 L 6034.81345371 2490.83492406 Z " stroke="#191919" stroke-width="0.35 px" style="stroke-width:0.35;stroke-miterlimit:4;stroke-dasharray:none;fill:#cccccc;fill-rule: evenodd "/>
<path id="Solid002_f0007"  d="M 5973.29924817 2413.0 A 80.0 80.0 0 0 0 6034.81345371 2490.83492406 L 6034.81345371 2490.83492406 A 80.0 80.0 0 0 1 5973.29924817 2413.0 L 5973.29924817 2413.0 Z " stroke="#191919" stroke-width="0.35 px" style="stroke-width:0.35;stroke-miterlimit:4;stroke-dasharray:none;fill:#cccccc;fill-rule: evenodd "/>
<path id="Solid002_f0008"  d="M 5973.29924817 2292.0 A 80.0 80.0 0 0 1 6053.29924817 2212.0 L 6293.29924817 2212.0 A 80.0 80.0 0 0 1 6373.29924817 2292.0 L 6373.29924817 2470.0 A 80.0 80.0 0 0 1 6274.81345371 2547.83492406 L 6034.81345371 2490.83492406 A 80.0 80.0 0 0 1 5973.29924817 2413.0 L 5973.29924817 2292.0 Z " stroke="#191919" stroke-width="0.35 px" style="stroke-width:0.35;stroke-miterlimit:4;stroke-dasharray:none;fill:#cccccc;fill-rule: evenodd "/>
<path id="Solid002_f0009"  d="M 5973.29924817 2413.0 L 5973.29924817 2292.0 A 80.0 80.0 0 0 1 6053.29924817 2212.0 L 6293.29924817 2212.0 A 80.0 80.0 0 0 1 6373.29924817 2292.0 L 6373.29924817 2470.0 A 80.0 80.0 0 0 1 6274.81345371 2547.83492406 L 6034.81345371 2490.83492406 A 80.0 80.0 0 0 1 5973.29924817 2413.0 Z " stroke="#191919" stroke-width="0.35 px" style="stroke-width:0.35;stroke-miterlimit:4;stroke-dasharray:none;fill:#cccccc;fill-rule: evenodd "/>
<title>Solid002</title>
</g>
</svg>