<?xml version="1.0"?>
<!DOCTYPE svg PUBLIC "-//W3C//DTD SVG 1.1//EN" "http://www.w3.org/Graphics/SVG/1.1/DTD/svg11.dtd">
<svg width="402.9mm" height="384.9mm" viewBox="0 0 402.9 384.9" xmlns="http://www.w3.org/2000/svg" version="1.1">
<g id="Solid001" transform="translate(-6509.349248,2592.950000) scale(1,-1)">
<path id="Solid001_f0000"  d="M 6513.29924817 2292.0 L 6513.29924817 2292.0 L 6513.29924817 2509.0 L 6513.29924817 2509.0 L 6513.29924817 2292.0 Z " stroke="#191919" stroke-width="0.35 px" style="stroke-width:0.35;stroke-miterlimit:4;stroke-dasharray:none;fill:#cccccc;fill-rule: evenodd "/>
<path id="Solid001_f0001"  d="M 6513.29924817 2509.0 A 80.0 80.0 0 0 0 6593.29924817 2589.0 L 6593.29924817 2589.0 A 80.0 80.0 0 0 1 6513.29924817 2509.0 L 6513.29924817 2509.0 Z " stroke="#191919" stroke-width="0.35 px" style="stroke-width:0.35;stroke-miterlimit:4;stroke-dasharray:none;fill:#cccccc;fill-rule: evenodd "/>
<path id="Solid001_f0002"  d="M 6593.29924817 2589.0 L 6593.29924817 2589.0 L 6828.29924817 2589.0 L 6828.29924817 2589.0 L 6593.29924817 2589.0 Z " stroke="#191919" stroke-width="0.35 px" style="stroke-width:0.35;stroke-miterlimit:4;stroke-dasharray:none;fill:#cccccc;fill-rule: evenodd "/>
<path id="Solid001_f0003"  d="M 6828.29924817 2589.0 A 80.0 80.0 0 0 0 6908.29924817 2509.0 L 6908.29924817 2509.0 A 80.0 80.0 0 0 1 6828.29924817 2589.0 L 6828.29924817 2589.0 Z " stroke="#191919" stroke-width="0.35 px" style="stroke-width:0.35;stroke-miterlimit:4;stroke-dasharray:none;fill:#cccccc;fill-rule: evenodd "/>
<path id="Solid001_f0004"  d="M 6908.29924817 2509.0 L 6908.29924817 2509.0 L 6908.29924817 2292.0 L 6908.29924817 2292.0 L 6908.29924817 2509.0 Z " stroke="#191919" stroke-width="0.35 px" style="stroke-width:0.35;stroke-miterlimit:4;stroke-dasharray:none;fill:#cccccc;fill-rule: evenodd "/>
<path id="Solid001_f0005"  d="M 6908.29924817 2292.0 A 80.0 80.0 0 0 0 6828.29924817 2212.0 L 6828.29924817 2212.0 A 80.0 80.0 0 0 1 6908.29924817 2292.0 L 6908.29924817 2292.0 Z " stroke="#191919" stroke-width="0.35 px" style="stroke-width:0.35;stroke-miterlimit:4;stroke-dasharray:none;fill:#cccccc;fill-rule: evenodd "/>
<path id="Solid001_f0006"  d="M 6828.29924817 2212.0 L 6828.29924817 2212.0 L 6593.29924817 2212.0 L 6593.29924817 2212.0 L 6828.29924817 2212.0 Z " stroke="#191919" stroke-width="0.35 px" style="stroke-width:0.35;stroke-miterlimit:4;stroke-dasharray:none;fill:#cccccc;fill-rule: evenodd "/>
<path id="Solid001_f0007"  d="M 6593.29924817 2212.0 A 80.0 80.0 0 0 0 6513.29924817 2292.0 L 6513.29924817 2292.0 A 80.0 80.0 0 0 1 6593.29924817 2212.0 L 6593.29924817 2212.0 Z " stroke="#191919" stroke-width="0.35 px" style="stroke-width:0.35;stroke-miterlimit:4;stroke-dasharray:none;fill:#cccccc;fill-rule: evenodd "/>
<path id="Solid001_f0008"  d="M 6513.29924817 2292.0 L 6513.29924817 2509.0 A 80.0 80.0 0 0 0 6593.29924817 2589.0 L 6828.29924817 2589.0 A 80.0 80.0 0 0 0 6908.29924817 2509.0 L 6908.29924817 2292.0 A 80.0 80.0 0 0 0 6828.29924817 2212.0 L 6593.29924817 2212.0 A 80.0 80.0 0 0 0 6513.29924817 2292.0 Z " stroke="#191919" stroke-width="0.35 px" style="stroke-width:0.35;stroke-miterlimit:4;stroke-dasharray:none;fill:#cccccc;fill-rule: evenodd "/>
<path id="Solid001_f0009"  d="M 6513.29924817 2292.0 A 80.0 80.0 0 0 1 6593.29924817 2212.0 L 6828.29924817 2212.0 A 80.0 80.0 0 0 1 6908.29924817 2292.0 L 6908.29924817 2509.0 A 80.0 80.0 0 0 1 6828.29924817 2589.0 L 6593.29924817 2589.0 A 80.0 80.0 0 0 1 6513.29924817 2509.0 L 6513.29924817 2292.0 Z " stroke="#191919" stroke-width="0.35 px" style="stroke-width:0.35;stroke-miterlimit:4;stroke-dasharray:none;fill:#cccccc;fill-rule: evenodd "/>
<title>Solid001</title>
</g>
</svg>