<?xml version="1.0"?>
<!DOCTYPE svg PUBLIC "-//W3C//DTD SVG 1.1//EN" "http://www.w3.org/Graphics/SVG/1.1/DTD/svg11.dtd">
<svg width="282.45609864mm" height="382.538354875mm" viewBox="0 0 282.45609864 382.538354875" xmlns="http://www.w3.org/2000/svg" version="1.1">
<g id="Solid003" transform="translate(-7045.530071,2591.769177) scale(1,-1)">
<path id="Solid003_f0000"  d="M 7048.29924817 2292.0 L 7048.29924817 2292.0 L 7048.29924817 2509.0 L 7048.29924817 2509.0 L 7048.29924817 2292.0 Z " stroke="#191919" stroke-width="0.35 px" style="stroke-width:0.35;stroke-miterlimit:4;stroke-dasharray:none;fill:#cccccc;fill-rule: evenodd "/>
<path id="Solid003_f0001"  d="M 7048.29924817 2509.0 A 80.0 80.0 0 0 0 7128.29924817 2589.0 L 7128.29924817 2589.0 A 80.0 80.0 0 0 1 7048.29924817 2509.0 L 7048.29924817 2509.0 Z " stroke="#191919" stroke-width="0.35 px" style="stroke-width:0.35;stroke-miterlimit:4;stroke-dasharray:none;fill:#cccccc;fill-rule: evenodd "/>
<path id="Solid003_f0002"  d="M 7128.29924817 2589.0 L 7128.29924817 2589.0 L 7199.29924817 2589.0 L 7199.29924817 2589.0 L 7128.29924817 2589.0 Z " stroke="#191919" stroke-width="0.35 px" style="stroke-width:0.35;stroke-miterlimit:4;stroke-dasharray:none;fill:#cccccc;fill-rule: evenodd "/>
<path id="Solid003_f0003"  d="M 7199.29924817 2589.0 A 80.0 80.0 0 0 0 7277.56019589 2525.58987832 L 7277.56019589 2525.58987832 A 80.0 80.0 0 0 1 7199.29924817 2589.0 L 7199.29924817 2589.0 Z " stroke="#191919" stroke-width="0.35 px" style="stroke-width:0.35;stroke-miterlimit:4;stroke-dasharray:none;fill:#cccccc;fill-rule: evenodd "/>
<path id="Solid003_f0004"  d="M 7277.56019589 2525.58987832 L 7277.56019589 2525.58987832 L 7323.56019589 2308.58987832 L 7323.56019589 2308.58987832 L 7277.56019589 2525.58987832 Z " stroke="#191919" stroke-width="0.35 px" style="stroke-width:0.35;stroke-miterlimit:4;stroke-dasharray:none;fill:#cccccc;fill-rule: evenodd "/>
<path id="Solid003_f0005"  d="M 7323.56019589 2308.58987832 A 80.0 80.0 0 0 0 7245.29924817 2212.0 L 7245.29924817 2212.0 A 80.0 80.0 0 0 1 7323.56019589 2308.58987832 L 7323.56019589 2308.58987832 Z " stroke="#191919" stroke-width="0.35 px" style="stroke-width:0.35;stroke-miterlimit:4;stroke-dasharray:none;fill:#cccccc;fill-rule: evenodd "/>
<path id="Solid003_f0006"  d="M 7245.29924817 2212.0 L 7245.29924817 2212.0 L 7128.29924817 2212.0 L 7128.29924817 2212.0 L 7245.29924817 2212.0 Z " stroke="#191919" stroke-width="0.35 px" style="stroke-width:0.35;stroke-miterlimit:4;stroke-dasharray:none;fill:#cccccc;fill-rule: evenodd "/>
<path id="Solid003_f0007"  d="M 7128.29924817 2212.0 A 80.0 80.0 0 0 0 7048.29924817 2292.0 L 7048.29924817 2292.0 A 80.0 80.0 0 0 1 7128.29924817 2212.0 L 7128.29924817 2212.0 Z " stroke="#191919" stroke-width="0.35 px" style="stroke-width:0.35;stroke-miterlimit:4;stroke-dasharray:none;fill:#cccccc;fill-rule: evenodd "/>
<path id="Solid003_f0008"  d="M 7048.29924817 2292.0 L 7048.29924817 2509.0 A 80.0 80.0 0 0 0 7128.29924817 2589.0 L 7199.29924817 2589.0 A 80.0 80.0 0 0 0 7277.56019589 2525.58987832 L 7323.56019589 2308.58987832 A 80.0 80.0 0 0 0 7245.29924817 2212.0 L 7128.29924817 2212.0 A 80.0 80.0 0 0 0 7048.29924817 2292.0 Z " stroke="#191919" stroke-width="0.35 px" style="stroke-width:0.35;stroke-miterlimit:4;stroke-dasharray:none;fill:#cccccc;fill-rule: evenodd "/>
<path id="Solid003_f0009"  d="M 7048.29924817 2292.0 A 80.0 80.0 0 0 1 7128.29924817 2212.0 L 7245.29924817 2212.0 A 80.0 80.0 0 0 1 7323.56019589 2308.58987832 L 7277.56019589 2525.58987832 A 80.0 80.0 0 0 1 7199.29924817 2589.0 L 7128.29924817 2589.0 A 80.0 80.0 0 0 1 7048.29924817 2509.0 L 7048.29924817 2292.0 Z " stroke="#191919" stroke-width="0.35 px" style="stroke-width:0.35;stroke-miterlimit:4;stroke-dasharray:none;fill:#cccccc;fill-rule: evenodd "/>
<title>Solid003</title>
</g>
</svg>