<?xml version="1.0"?>
<!DOCTYPE svg PUBLIC "-//W3C//DTD SVG 1.1//EN" "http://www.w3.org/Graphics/SVG/1.1/DTD/svg11.dtd">
<svg width="752.76mm" height="614.76mm" viewBox="0 0 752.76 614.76" xmlns="http://www.w3.org/2000/svg" version="1.1">
<g id="Pad003001" transform="translate(374.543831,6916.018343) scale(1,-1)">
<path id="Pad003001_f0000"  d="M -367.163831476 6388.63834307 L -367.163831476 6388.63834307 L -367.163831476 6828.63834307 L -367.163831476 6828.63834307 L -367.163831476 6388.63834307 Z " stroke="#191919" stroke-width="0.35 px" style="stroke-width:0.35;stroke-miterlimit:4;stroke-dasharray:none;fill:#cccccc;fill-rule: evenodd "/>
<path id="Pad003001_f0001"  d="M -367.163831476 6828.63834307 A 80.0 80.0 0 0 0 -287.163831476 6908.63834307 L -287.163831476 6908.63834307 A 80.0 80.0 0 0 1 -367.163831476 6828.63834307 L -367.163831476 6828.63834307 Z " stroke="#191919" stroke-width="0.35 px" style="stroke-width:0.35;stroke-miterlimit:4;stroke-dasharray:none;fill:#cccccc;fill-rule: evenodd "/>
<path id="Pad003001_f0002"  d="M -287.163831476 6908.63834307 L -287.163831476 6908.63834307 L 290.836168525 6908.63834307 L 290.836168525 6908.63834307 L -287.163831476 6908.63834307 Z " stroke="#191919" stroke-width="0.35 px" style="stroke-width:0.35;stroke-miterlimit:4;stroke-dasharray:none;fill:#cccccc;fill-rule: evenodd "/>
<path id="Pad003001_f0003"  d="M 290.836168524 6908.63834307 A 80.0 80.0 0 0 0 370.836168524 6828.63834307 L 370.836168524 6828.63834307 A 80.0 80.0 0 0 1 290.836168525 6908.63834307 L 290.836168525 6908.63834307 Z " stroke="#191919" stroke-width="0.35 px" style="stroke-width:0.35;stroke-miterlimit:4;stroke-dasharray:none;fill:#cccccc;fill-rule: evenodd "/>
<path id="Pad003001_f0004"  d="M 370.836168524 6828.63834307 L 370.836168524 6828.63834307 L 370.836168524 6388.63834307 L 370.836168524 6388.63834307 L 370.836168524 6828.63834307 Z " stroke="#191919" stroke-width="0.35 px" style="stroke-width:0.35;stroke-miterlimit:4;stroke-dasharray:none;fill:#cccccc;fill-rule: evenodd "/>
<path id="Pad003001_f0005"  d="M 370.836168524 6388.63834307 A 80.0 80.0 0 0 0 290.836168524 6308.63834307 L 290.836168525 6308.63834307 A 80.0 80.0 0 0 1 370.836168524 6388.63834307 L 370.836168524 6388.63834307 Z " stroke="#191919" stroke-width="0.35 px" style="stroke-width:0.35;stroke-miterlimit:4;stroke-dasharray:none;fill:#cccccc;fill-rule: evenodd "/>
<path id="Pad003001_f0006"  d="M 290.836168525 6308.63834307 L 290.836168525 6308.63834307 L -287.163831477 6308.63834307 L -287.163831477 6308.63834307 L 290.836168525 6308.63834307 Z " stroke="#191919" stroke-width="0.35 px" style="stroke-width:0.35;stroke-miterlimit:4;stroke-dasharray:none;fill:#cccccc;fill-rule: evenodd "/>
<path id="Pad003001_f0007"  d="M -287.163831476 6308.63834307 A 80.0 80.0 0 0 0 -367.163831476 6388.63834307 L -367.163831476 6388.63834307 A 80.0 80.0 0 0 1 -287.163831477 6308.63834307 L -287.163831477 6308.63834307 Z " stroke="#191919" stroke-width="0.35 px" style="stroke-width:0.35;stroke-miterlimit:4;stroke-dasharray:none;fill:#cccccc;fill-rule: evenodd "/>
<path id="Pad003001_f0008"  d="M -367.163831476 6388.63834307 L -367.163831476 6828.63834307 A 80.0 80.0 0 0 0 -287.163831476 6908.63834307 L 290.836168525 6908.63834307 A 80.0 80.0 0 0 0 370.836168524 6828.63834307 L 370.836168524 6388.63834307 A 80.0 80.0 0 0 0 290.836168524 6308.63834307 L -287.163831477 6308.63834307 A 80.0 80.0 0 0 0 -367.163831476 6388.63834307 Z " stroke="#191919" stroke-width="0.35 px" style="stroke-width:0.35;stroke-miterlimit:4;stroke-dasharray:none;fill:#cccccc;fill-rule: evenodd "/>
<path id="Pad003001_f0009"  d="M -367.163831476 6388.63834307 A 80.0 80.0 0 0 1 -287.163831477 6308.63834307 L 290.836168525 6308.63834307 A 80.0 80.0 0 0 1 370.836168524 6388.63834307 L 370.836168524 6828.63834307 A 80.0 80.0 0 0 1 290.836168525 6908.63834307 L -287.163831476 6908.63834307 A 80.0 80.0 0 0 1 -367.163831476 6828.63834307 L -367.163831476 6388.63834307 Z " stroke="#191919" stroke-width="0.35 px" style="stroke-width:0.35;stroke-miterlimit:4;stroke-dasharray:none;fill:#cccccc;fill-rule: evenodd "/>
<title>Pad202014</title>
</g>
</svg>