<?xml version="1.0"?>
<!DOCTYPE svg PUBLIC "-//W3C//DTD SVG 1.1//EN" "http://www.w3.org/Graphics/SVG/1.1/DTD/svg11.dtd">
<svg width="815.291233085mm" height="435.98610261mm" viewBox="0 0 815.291233085 435.98610261" xmlns="http://www.w3.org/2000/svg" version="1.1">
<g id="Solid" transform="translate(-6601.177601,3174.543570) scale(1,-1)">
<path id="Solid_f0000"  d="M 7405.31395497 2990.27388073 A 80.0 80.0 0 0 0 7385.05398373 2911.4033321 L 7385.05398373 2911.4033321 A 80.0 80.0 0 0 1 7405.31395497 2990.27388073 L 7405.31395497 2990.27388073 Z " stroke="#191919" stroke-width="0.35 px" style="stroke-width:0.35;stroke-miterlimit:4;stroke-dasharray:none;fill:#cccccc;fill-rule: evenodd "/>
<path id="Solid_f0001"  d="M 7370.89259873 3108.85252449 L 7405.31395497 2990.27388073 L 7405.31395497 2990.27388073 L 7370.89259873 3108.85252449 L 7370.89259873 3108.85252449 Z " stroke="#191919" stroke-width="0.35 px" style="stroke-width:0.35;stroke-miterlimit:4;stroke-dasharray:none;fill:#cccccc;fill-rule: evenodd "/>
<path id="Solid_f0002"  d="M 7294.064085 3166.55051836 A 80.0 80.0 0 0 0 7370.89259873 3108.85252449 L 7370.89259873 3108.85252449 A 80.0 80.0 0 0 1 7294.064085 3166.55051836 L 7294.064085 3166.55051836 Z " stroke="#191919" stroke-width="0.35 px" style="stroke-width:0.35;stroke-miterlimit:4;stroke-dasharray:none;fill:#cccccc;fill-rule: evenodd "/>
<path id="Solid_f0003"  d="M 6864.064085 3166.55051836 L 7294.064085 3166.55051836 L 7294.064085 3166.55051836 L 6864.064085 3166.55051836 L 6864.064085 3166.55051836 Z " stroke="#191919" stroke-width="0.35 px" style="stroke-width:0.35;stroke-miterlimit:4;stroke-dasharray:none;fill:#cccccc;fill-rule: evenodd "/>
<path id="Solid_f0004"  d="M 6797.69706519 3131.22062785 A 80.0 80.0 0 0 0 6864.064085 3166.55051836 L 6864.064085 3166.55051836 A 80.0 80.0 0 0 1 6797.69706519 3131.22062785 L 6797.69706519 3131.22062785 Z " stroke="#191919" stroke-width="0.35 px" style="stroke-width:0.35;stroke-miterlimit:4;stroke-dasharray:none;fill:#cccccc;fill-rule: evenodd "/>
<path id="Solid_f0005"  d="M 6622.69706519 2871.22062785 L 6797.69706519 3131.22062785 L 6797.69706519 3131.22062785 L 6622.69706519 2871.22062785 L 6622.69706519 2871.22062785 Z " stroke="#191919" stroke-width="0.35 px" style="stroke-width:0.35;stroke-miterlimit:4;stroke-dasharray:none;fill:#cccccc;fill-rule: evenodd "/>
<path id="Solid_f0006"  d="M 6689.064085 2746.55051836 A 80.0 80.0 0 0 0 6622.69706519 2871.22062785 L 6622.69706519 2871.22062785 A 80.0 80.0 0 0 1 6689.064085 2746.55051836 L 6689.064085 2746.55051836 Z " stroke="#191919" stroke-width="0.35 px" style="stroke-width:0.35;stroke-miterlimit:4;stroke-dasharray:none;fill:#cccccc;fill-rule: evenodd "/>
<path id="Solid_f0007"  d="M 7187.064085 2746.55051836 L 6689.064085 2746.55051836 L 6689.064085 2746.55051836 L 7187.064085 2746.55051836 L 7187.064085 2746.55051836 Z " stroke="#191919" stroke-width="0.35 px" style="stroke-width:0.35;stroke-miterlimit:4;stroke-dasharray:none;fill:#cccccc;fill-rule: evenodd "/>
<path id="Solid_f0008"  d="M 7243.63262749 2769.98197587 A 80.0 80.0 0 0 0 7187.064085 2746.55051836 L 7187.064085 2746.55051836 A 80.0 80.0 0 0 1 7243.63262749 2769.98197587 L 7243.63262749 2769.98197587 Z " stroke="#191919" stroke-width="0.35 px" style="stroke-width:0.35;stroke-miterlimit:4;stroke-dasharray:none;fill:#cccccc;fill-rule: evenodd "/>
<path id="Solid_f0009"  d="M 7385.05398373 2911.4033321 L 7385.05398373 2911.4033321 L 7243.63262749 2769.98197587 L 7243.63262749 2769.98197587 L 7385.05398373 2911.4033321 Z " stroke="#191919" stroke-width="0.35 px" style="stroke-width:0.35;stroke-miterlimit:4;stroke-dasharray:none;fill:#cccccc;fill-rule: evenodd "/>
<path id="Solid_f0010"  d="M 7385.05398373 2911.4033321 L 7243.63262749 2769.98197587 A 80.0 80.0 0 0 0 7187.064085 2746.55051836 L 6689.064085 2746.55051836 A 80.0 80.0 0 0 0 6622.69706519 2871.22062785 L 6797.69706519 3131.22062785 A 80.0 80.0 0 0 0 6864.064085 3166.55051836 L 7294.064085 3166.55051836 A 80.0 80.0 0 0 0 7370.89259873 3108.85252449 L 7405.31395497 2990.27388073 A 80.0 80.0 0 0 0 7385.05398373 2911.4033321 Z " stroke="#191919" stroke-width="0.35 px" style="stroke-width:0.35;stroke-miterlimit:4;stroke-dasharray:none;fill:#cccccc;fill-rule: evenodd "/>
<path id="Solid_f0011"  d="M 7385.05398373 2911.4033321 A 80.0 80.0 0 0 1 7405.31395497 2990.27388073 L 7370.89259873 3108.85252449 A 80.0 80.0 0 0 1 7294.064085 3166.55051836 L 6864.064085 3166.55051836 A 80.0 80.0 0 0 1 6797.69706519 3131.22062785 L 6622.69706519 2871.22062785 A 80.0 80.0 0 0 1 6689.064085 2746.55051836 L 7187.064085 2746.55051836 A 80.0 80.0 0 0 1 7243.63262749 2769.98197587 L 7385.05398373 2911.4033321 Z " stroke="#191919" stroke-width="0.35 px" style="stroke-width:0.35;stroke-miterlimit:4;stroke-dasharray:none;fill:#cccccc;fill-rule: evenodd "/>
<title>Solid</title>
</g>
</svg>