<?xml version="1.0"?>
<!DOCTYPE svg PUBLIC "-//W3C//DTD SVG 1.1//EN" "http://www.w3.org/Graphics/SVG/1.1/DTD/svg11.dtd">
<svg width="591.320762323mm" height="606.468668078mm" viewBox="0 0 591.320762323 606.468668078" xmlns="http://www.w3.org/2000/svg" version="1.1">
<g id="Pad002001" transform="translate(-1557.657397,6909.770795) scale(1,-1)">
<path id="Pad002001_f0000"  d="M 1563.454659 6388.338435 L 1563.454659 6388.338435 L 1563.454659 6824.032474 L 1563.454659 6824.032474 L 1563.454659 6388.338435 Z " stroke="#191919" stroke-width="0.35 px" style="stroke-width:0.35;stroke-miterlimit:4;stroke-dasharray:none;fill:#cccccc;fill-rule: evenodd "/>
<path id="Pad002001_f0001"  d="M 1563.454659 6824.032474 A 80.0 80.0 0 0 0 1646.52501855 6903.97353286 L 1646.52501855 6903.97353286 A 80.0 80.0 0 0 1 1563.454659 6824.032474 L 1563.454659 6824.032474 Z " stroke="#191919" stroke-width="0.35 px" style="stroke-width:0.35;stroke-miterlimit:4;stroke-dasharray:none;fill:#cccccc;fill-rule: evenodd "/>
<path id="Pad002001_f0002"  d="M 1646.52501855 6903.97353286 L 1646.52501855 6903.97353286 L 1986.80896555 6890.90397786 L 1986.80896555 6890.90397786 L 1646.52501855 6903.97353286 Z " stroke="#191919" stroke-width="0.35 px" style="stroke-width:0.35;stroke-miterlimit:4;stroke-dasharray:none;fill:#cccccc;fill-rule: evenodd "/>
<path id="Pad002001_f0003"  d="M 1986.80896555 6890.90397786 A 80.0 80.0 0 0 0 2061.89533823 6828.03702825 L 2061.89533823 6828.03702825 A 80.0 80.0 0 0 1 1986.80896555 6890.90397786 L 1986.80896555 6890.90397786 Z " stroke="#191919" stroke-width="0.35 px" style="stroke-width:0.35;stroke-miterlimit:4;stroke-dasharray:none;fill:#cccccc;fill-rule: evenodd "/>
<path id="Pad002001_f0004"  d="M 2061.89533823 6828.03702825 L 2061.89533823 6828.03702825 L 2141.47947923 6463.74063625 L 2141.47947923 6463.74063625 L 2061.89533823 6828.03702825 Z " stroke="#191919" stroke-width="0.35 px" style="stroke-width:0.35;stroke-miterlimit:4;stroke-dasharray:none;fill:#cccccc;fill-rule: evenodd "/>
<path id="Pad002001_f0005"  d="M 2141.47947923 6463.74063625 A 80.0 80.0 0 0 0 2074.33063844 6367.42748154 L 2074.33063844 6367.42748154 A 80.0 80.0 0 0 1 2141.47947923 6463.74063625 L 2141.47947923 6463.74063625 Z " stroke="#191919" stroke-width="0.35 px" style="stroke-width:0.35;stroke-miterlimit:4;stroke-dasharray:none;fill:#cccccc;fill-rule: evenodd "/>
<path id="Pad002001_f0006"  d="M 2074.33063844 6367.42748154 L 2074.33063844 6367.42748154 L 1654.46255044 6309.09938954 L 1654.46255044 6309.09938954 L 2074.33063844 6367.42748154 Z " stroke="#191919" stroke-width="0.35 px" style="stroke-width:0.35;stroke-miterlimit:4;stroke-dasharray:none;fill:#cccccc;fill-rule: evenodd "/>
<path id="Pad002001_f0007"  d="M 1654.46255044 6309.09938954 A 80.0 80.0 0 0 0 1563.454659 6388.338435 L 1563.454659 6388.338435 A 80.0 80.0 0 0 1 1654.46255044 6309.09938954 L 1654.46255044 6309.09938954 Z " stroke="#191919" stroke-width="0.35 px" style="stroke-width:0.35;stroke-miterlimit:4;stroke-dasharray:none;fill:#cccccc;fill-rule: evenodd "/>
<path id="Pad002001_f0008"  d="M 1563.454659 6388.338435 L 1563.454659 6824.032474 A 80.0 80.0 0 0 0 1646.52501855 6903.97353286 L 1986.80896555 6890.90397786 A 80.0 80.0 0 0 0 2061.89533823 6828.03702825 L 2141.47947923 6463.74063625 A 80.0 80.0 0 0 0 2074.33063844 6367.42748154 L 1654.46255044 6309.09938954 A 80.0 80.0 0 0 0 1563.454659 6388.338435 Z " stroke="#191919" stroke-width="0.35 px" style="stroke-width:0.35;stroke-miterlimit:4;stroke-dasharray:none;fill:#cccccc;fill-rule: evenodd "/>
<path id="Pad002001_f0009"  d="M 1563.454659 6388.338435 A 80.0 80.0 0 0 1 1654.46255044 6309.09938954 L 2074.33063844 6367.42748154 A 80.0 80.0 0 0 1 2141.47947923 6463.74063625 L 2061.89533823 6828.03702825 A 80.0 80.0 0 0 1 1986.80896555 6890.90397786 L 1646.52501855 6903.97353286 A 80.0 80.0 0 0 1 1563.454659 6824.032474 L 1563.454659 6388.338435 Z " stroke="#191919" stroke-width="0.35 px" style="stroke-width:0.35;stroke-miterlimit:4;stroke-dasharray:none;fill:#cccccc;fill-rule: evenodd "/>
<title>Pad202015</title>
</g>
</svg>